<?xml version="1.0" encoding="UTF-8" standalone="no"?>
<svg width="635px" height="575px" viewBox="0 0 635 575" version="1.1" xmlns="http://www.w3.org/2000/svg" xmlns:xlink="http://www.w3.org/1999/xlink" xmlns:sketch="http://www.bohemiancoding.com/sketch/ns">
    <!-- Generator: Sketch 3.3.2 (12043) - http://www.bohemiancoding.com/sketch -->
    <title>underconstruction</title>
    <desc>Created with Sketch.</desc>
    <defs></defs>
    <g id="Page-1" stroke="none" stroke-width="1" fill="none" fill-rule="evenodd" sketch:type="MSPage">
        <g id="Path-1-Copy-+-Path-2-Copy-+-Path-4-Copy" sketch:type="MSLayerGroup" transform="translate(20.000000, 178.000000)" stroke="#979797">
            <path d="M0.13671875,230.582031 C0.13671875,230.582031 128.183594,239.3125 277.085938,0.65625" id="Path-1-Copy" sketch:type="MSShapeGroup"></path>
            <path d="M277.054688,0.875 C277.054688,0.875 361.0625,429.25 467.601562,95.625" id="Path-2-Copy" sketch:type="MSShapeGroup"></path>
            <path d="M473.231915,90.5129405 C473.231915,90.5129405 482.296539,240.11733 527.500986,163.424059" id="Path-4-Copy" sketch:type="MSShapeGroup"></path>
        </g>
        <g id="Path-1-Copy-+-Path-2-Copy-+-Path-4-Copy-Copy" sketch:type="MSLayerGroup" transform="translate(1.000000, 178.000000)" stroke="#EDEDED">
            <path d="M0.13671875,230.582031 C0.13671875,230.582031 128.183594,239.3125 277.085938,0.65625" id="Path-1-Copy" sketch:type="MSShapeGroup"></path>
            <path d="M277.054688,0.875 C277.054688,0.875 361.0625,429.25 467.601562,95.625" id="Path-2-Copy" sketch:type="MSShapeGroup"></path>
            <path d="M473.231915,90.5129405 C473.231915,90.5129405 482.296539,240.11733 527.500986,163.424059" id="Path-4-Copy" sketch:type="MSShapeGroup"></path>
        </g>
        <rect id="Rectangle-2" stroke="#979797" fill="#D8D8D8" sketch:type="MSShapeGroup" x="488" y="268" width="9" height="214"></rect>
        <path d="M305.380859,178.875 L305.380859,573.875 L288.728516,573.875 L288.728516,178.875 L305.380859,178.875 Z" id="Rectangle-1" stroke="#979797" fill="#D8D8D8" sketch:type="MSShapeGroup"></path>
        <path d="M79.5,565.5 L610.5,393.5" id="Line" stroke="#979797" stroke-linecap="square" sketch:type="MSShapeGroup"></path>
        <path d="M53.5,535.5 L584.5,363.5" id="Line-Copy" stroke="#E9E9E9" stroke-linecap="square" sketch:type="MSShapeGroup"></path>
        <g id="Group" sketch:type="MSLayerGroup" transform="translate(59.000000, 262.000000)" stroke="#DFDFDF" stroke-linecap="square">
            <path d="M1.5,138.5 L1.5,306.5" id="Line" sketch:type="MSShapeGroup"></path>
            <path d="M53.5,119.5 L53.5,289.5" id="Line" sketch:type="MSShapeGroup"></path>
            <path d="M100.5,88.5 L100.5,274.5" id="Line" sketch:type="MSShapeGroup"></path>
            <path d="M146.5,54.5 L146.5,262.5" id="Line" sketch:type="MSShapeGroup"></path>
            <path d="M191.5,0.5 L191.5,245.5" id="Line" sketch:type="MSShapeGroup"></path>
        </g>
        <text id="UNDER-CONSTRUCTION" sketch:type="MSTextLayer" font-family="Avenir Next" font-size="48" font-weight="normal" fill="#000000">
            <tspan x="79" y="48">UNDER CONSTRUCTION</tspan>
        </text>
    </g>
</svg>